
<svg xmlns="http://www.w3.org/2000/svg" viewBox="0 0 200 200" width="200" height="200" role="img" aria-label="No Outcome ABA — SAssi">
  <defs>
    <clipPath id="tile"><rect x="6" y="6" width="188" height="188" rx="42"></rect></clipPath>
  </defs>
  <g clip-path="url(#tile)">
    
    <rect x="6" y="6" width="188" height="188" fill="#f4f7f1"></rect>
    <rect x="14" y="14" width="172" height="22" fill="#e7ede0"></rect>
    <g stroke="#dce3d4" stroke-width="1.3">
      <line x1="48.4" y1="14" x2="48.4" y2="186"></line>
      <line x1="82.8" y1="14" x2="82.8" y2="186"></line>
      <line x1="117.2" y1="14" x2="117.2" y2="186"></line>
      <line x1="151.6" y1="14" x2="151.6" y2="186"></line>
      <line x1="14" y1="36" x2="186" y2="36"></line>
      <line x1="14" y1="73.5" x2="186" y2="73.5"></line>
      <line x1="14" y1="111" x2="186" y2="111"></line>
      <line x1="14" y1="148.5" x2="186" y2="148.5"></line>
      <rect x="14" y="14" width="172" height="172" fill="none" stroke="#cdd6c4" stroke-width="1.6"></rect>
    </g>

    
    <path d="M31 167 L31 55 L100 167 L100 55" fill="none" stroke="#3a4448" stroke-width="6.5" stroke-linecap="round" stroke-linejoin="round"></path>
    <rect x="18" y="49" width="26" height="12" rx="3" fill="#7c3aed"></rect>
    <rect x="18" y="161" width="26" height="12" rx="3" fill="#16a34a"></rect>
    <rect x="53" y="105" width="26" height="12" rx="3" fill="#3b82f6"></rect>
    <rect x="87" y="161" width="26" height="12" rx="3" fill="#f59e0b"></rect>
    <rect x="87" y="49" width="26" height="12" rx="3" fill="#0ea5e9"></rect>

    
    <path d="M113.4 109.7 A40 40 0 1 1 137.3 133.6" fill="none" stroke="#3a4448" stroke-width="6.5" stroke-linecap="round"></path>
    
    <rect x="138" y="49" width="26" height="12" rx="3" fill="#7c3aed"></rect>
    
    <rect x="104" y="151" width="30" height="30" rx="4" fill="none" stroke="#9bb083" stroke-width="2" stroke-dasharray="4 4"></rect>
    
    <rect x="106" y="136" width="26" height="12" rx="3" fill="#16a34a"></rect>
    <path d="M114 150 l10 0 l-5 7 z" fill="#16a34a"></path>
  </g>
</svg>